<svg xmlns="http://www.w3.org/2000/svg" width="212" height="97" viewBox="0 0 212 97" fill="none">
  <g filter="url(#filter0_d_219_1482)">
    <path fill-rule="evenodd" clip-rule="evenodd" d="M121.201 15.5048C121.197 14.7377 121.491 13.999 122.02 13.4436C122.549 12.8881 123.273 12.559 124.039 12.5251V12.4543H144.877V12.5251C148.022 12.5276 151.039 13.7735 153.27 15.991C155.501 18.2085 156.764 21.2178 156.786 24.3631C156.776 25.9456 156.456 27.5108 155.841 28.9692C155.227 30.4277 154.332 31.7509 153.206 32.8633C152.081 33.9757 150.747 34.8555 149.282 35.4525C147.816 36.0495 146.247 36.352 144.665 36.3427H134.382C133.565 36.4409 132.807 36.8199 132.237 37.4149C131.668 38.0099 131.323 38.7841 131.261 39.6052V53.7463C131.261 54.7428 130.865 55.6985 130.161 56.4032C129.456 57.1079 128.5 57.5037 127.504 57.5037C126.507 57.5037 125.551 57.1079 124.847 56.4032C124.142 55.6985 123.746 54.7428 123.746 53.7463V36.9083C123.767 35.1453 124.482 33.4616 125.735 32.2215C126.989 30.9814 128.68 30.2847 130.443 30.2822H143.412C150.988 29.9489 151.018 18.7774 143.412 18.4441H124.039C123.278 18.3959 122.563 18.0623 122.037 17.5099C121.51 16.9576 121.212 16.2271 121.201 15.4644" fill="#8963A7"/>
  </g>
  <g filter="url(#filter1_d_219_1482)">
    <path fill-rule="evenodd" clip-rule="evenodd" d="M112.767 4.65655C113.512 4.66455 114.239 4.89246 114.856 5.31173C115.473 5.731 115.952 6.32296 116.233 7.01343C116.515 7.7039 116.587 8.46215 116.439 9.19314C116.292 9.92413 115.932 10.5953 115.405 11.1226C114.877 11.6499 114.206 12.0099 113.475 12.1573C112.744 12.3047 111.986 12.2331 111.295 11.9515C110.605 11.6698 110.013 11.1906 109.594 10.5739C109.174 9.95722 108.947 9.23049 108.939 8.48482C108.936 7.98134 109.033 7.48232 109.224 7.01664C109.416 6.55097 109.698 6.12788 110.054 5.77185C110.41 5.41583 110.833 5.13394 111.299 4.9425C111.764 4.75106 112.263 4.65387 112.767 4.65655Z" fill="#8963A7"/>
  </g>
  <g filter="url(#filter2_d_219_1482)">
    <path fill-rule="evenodd" clip-rule="evenodd" d="M116.524 13.0199V53.8573C116.532 54.3006 116.452 54.741 116.288 55.153C116.124 55.565 115.88 55.9403 115.57 56.2571C115.26 56.5739 114.89 56.8258 114.481 56.9982C114.073 57.1706 113.634 57.26 113.191 57.2613H112.262C111.818 57.26 111.38 57.1706 110.971 56.9982C110.563 56.8258 110.192 56.5739 109.882 56.2571C109.572 55.9403 109.328 55.565 109.164 55.153C109 54.741 108.92 54.3006 108.928 53.8573V12.9492C109.995 13.861 111.353 14.3624 112.756 14.3633C114.128 14.3742 115.46 13.8982 116.514 13.0199" fill="#8963A7"/>
  </g>
  <g filter="url(#filter3_d_219_1482)">
    <path fill-rule="evenodd" clip-rule="evenodd" d="M72.1512 18.4844C71.3774 18.4535 70.6448 18.1275 70.1038 17.5733C69.5628 17.0192 69.2545 16.279 69.2422 15.5046C69.2545 14.7303 69.5628 13.99 70.1038 13.4359C70.6448 12.8818 71.3774 12.5558 72.1512 12.5249H92.9891C96.1271 12.5302 99.1351 13.7792 101.354 15.9981C103.573 18.217 104.822 21.225 104.827 24.363C104.79 27.5636 103.488 30.6196 101.206 32.8639C98.9238 35.1082 95.8465 36.3587 92.6457 36.3425H82.4237C81.6062 36.4408 80.848 36.8198 80.2788 37.4148C79.7096 38.0098 79.3645 38.7839 79.3026 39.6051V53.7461C79.304 54.2367 79.2073 54.7226 79.0181 55.1752C78.8289 55.6278 78.551 56.0379 78.2009 56.3815C77.8507 56.7251 77.4354 56.9951 76.9793 57.1756C76.5232 57.3562 76.0356 57.4437 75.5451 57.4329C75.0561 57.4382 74.5708 57.347 74.1172 57.1645C73.6635 56.982 73.2503 56.7117 72.9012 56.3693C72.5522 56.0268 72.2742 55.6188 72.0831 55.1687C71.892 54.7185 71.7916 54.2351 71.7876 53.7461V36.9081C71.8089 35.1381 72.5291 33.4483 73.7911 32.2071C75.0531 30.9659 76.7547 30.2739 78.5248 30.282H91.4942C93.064 30.282 94.5695 29.6584 95.6796 28.5484C96.7896 27.4384 97.4132 25.9328 97.4132 24.363C97.4132 22.7932 96.7896 21.2876 95.6796 20.1776C94.5695 19.0676 93.064 18.444 91.4942 18.444H72.1512V18.4844Z" fill="#8963A7"/>
  </g>
  <g filter="url(#filter4_d_219_1482)">
    <path fill-rule="evenodd" clip-rule="evenodd" d="M191.876 49.2412C192.661 49.2835 193.402 49.6178 193.953 50.1784C194.505 50.7391 194.827 51.4856 194.856 52.2714C194.833 53.068 194.516 53.828 193.965 54.4044C193.415 54.9809 192.671 55.3329 191.876 55.3925H171.604C168.374 55.3401 165.293 54.0291 163.016 51.7388C160.739 49.4485 159.446 46.3597 159.412 43.1302C159.413 41.3787 159.794 39.6482 160.528 38.0579C161.262 36.4676 162.332 35.0554 163.665 33.9183C162.332 32.7813 161.262 31.369 160.528 29.7787C159.794 28.1884 159.413 26.458 159.412 24.7064C159.436 21.4804 160.728 18.3932 163.009 16.1119C165.291 13.8307 168.378 12.5386 171.604 12.5148V12.4441H191.876V12.5148C192.68 12.5148 193.45 12.8341 194.019 13.4023C194.587 13.9706 194.906 14.7414 194.906 15.545C194.906 16.3487 194.587 17.1194 194.019 17.6877C193.45 18.256 192.68 18.5753 191.876 18.5753H173.089C171.512 18.6414 170.019 19.3041 168.913 20.4293C167.806 21.5545 167.169 23.0581 167.129 24.6357C167.129 29.8174 173.089 30.6962 173.089 30.8073L191.664 30.7366C192.479 30.7258 193.266 31.0387 193.851 31.6067C194.436 32.1747 194.772 32.9515 194.785 33.7668V33.9082C194.769 34.7227 194.432 35.4979 193.848 36.0654C193.263 36.6328 192.478 36.9466 191.664 36.9384H173.089C171.472 36.9384 169.921 37.5807 168.778 38.7239C167.635 39.8671 166.993 41.4175 166.993 43.0343C166.993 44.651 167.635 46.2015 168.778 47.3446C169.921 48.4878 171.472 49.1301 173.089 49.1301L191.876 49.2412Z" fill="#8963A7"/>
  </g>
  <g filter="url(#filter5_d_219_1482)">
    <path fill-rule="evenodd" clip-rule="evenodd" d="M42.7077 15.1309C42.8491 10.6057 35.4553 11.0906 35.5462 15.1309V53.332C35.3644 56.0794 36.031 58.0591 39.5158 57.7763H55.6063C60.1921 57.8268 60.6567 51.4229 55.6063 51.3219H46.2934C42.7178 51.3219 42.6067 51.6047 42.7077 47.3523V15.1309Z" fill="#8963A7"/>
  </g>
  <g filter="url(#filter6_d_219_1482)">
    <path fill-rule="evenodd" clip-rule="evenodd" d="M6.52681 16.838L13.4458 32.3023C13.9203 32.9831 14.1888 33.7861 14.2192 34.6154C14.2497 35.4447 14.0408 36.2652 13.6176 36.979L6.30456 52.7968C4.35512 58.6249 12.365 59.2612 13.3145 54.7058L17.9407 43.595C18.4053 41.9283 19.2537 41.5748 20.0719 43.8071L24.4354 54.7563C26.2637 59.8067 33.8696 58.1603 31.6272 53.0493L23.9405 37.2315C22.991 35.6053 23.0214 34.3124 24.1527 32.1003L31.5565 16.6764C33.3847 11.626 25.5567 9.60589 24.0819 15.4744L19.9709 25.5752C19.375 27.2923 18.375 26.5853 18.0316 25.5247L14.163 15.4239C12.2337 9.81801 4.50666 11.9897 6.52681 16.838Z" fill="#8963A7"/>
  </g>
  <g filter="url(#filter7_d_219_1482)">
    <path d="M185.805 69.8571H194.28V83.2608H191.047V72.5439H188.936V76.9882C188.97 78.299 188.862 79.6097 188.613 80.8972C188.495 81.6416 188.141 82.3283 187.603 82.8567C187.084 83.2485 186.444 83.4452 185.795 83.4123C185.195 83.4013 184.604 83.2672 184.058 83.0184V80.6043C184.309 80.699 184.578 80.737 184.846 80.7154C185.038 80.7278 185.228 80.6704 185.381 80.5538C185.534 80.3778 185.629 80.1592 185.654 79.9275C185.724 79.4832 185.762 79.0341 185.765 78.5841C185.765 77.9983 185.765 77.1498 185.765 76.0286L185.805 69.8571ZM178.583 72.0085C178.289 72.0008 178.004 72.1056 177.785 72.3014C177.672 72.4057 177.583 72.5345 177.527 72.6781C177.471 72.8217 177.449 72.9761 177.462 73.1297V79.9275C177.453 80.0891 177.478 80.2508 177.536 80.4021C177.593 80.5535 177.682 80.6911 177.795 80.8063C178.006 81.0107 178.289 81.1233 178.583 81.1194C178.728 81.1198 178.871 81.0914 179.004 81.0359C179.138 80.9804 179.259 80.8989 179.361 80.7962C179.477 80.6827 179.568 80.5455 179.628 80.394C179.687 80.2424 179.713 80.0799 179.704 79.9174V73.1196C179.716 72.9652 179.692 72.8103 179.634 72.6667C179.576 72.523 179.486 72.3946 179.371 72.2913C179.153 72.1016 178.872 72.0006 178.583 72.0085ZM174.23 73.3317C174.217 72.6562 174.376 71.9886 174.694 71.3924C175.028 70.8043 175.536 70.3347 176.149 70.049C176.915 69.7016 177.752 69.5357 178.593 69.5641C179.436 69.5332 180.273 69.7029 181.038 70.0591C181.645 70.3492 182.147 70.8226 182.472 71.4126C182.786 72.0101 182.946 72.6768 182.936 73.3519V79.4124C182.977 79.9786 182.904 80.5473 182.722 81.085C182.54 81.6227 182.252 82.1186 181.876 82.5436C181.429 82.9343 180.908 83.2313 180.344 83.417C179.78 83.6027 179.185 83.6732 178.593 83.6244C175.691 83.6244 174.24 82.2238 174.24 79.4225L174.23 73.3317ZM167.038 72.5439V83.2608H163.775V69.8571H172.341V83.2608H169.109V72.5439H167.038ZM156.937 83.2608V69.8571H153.907L151.18 78.271C151.18 77.8367 151.271 77.2003 151.372 76.362C151.473 75.5236 151.553 74.8771 151.594 74.4529C151.641 74.0303 151.664 73.6054 151.665 73.1802V69.8571H148.634V83.2608H151.654L154.432 75.0994C154.432 75.2744 154.328 76.0219 154.119 77.3417C153.967 78.2677 153.873 79.2021 153.836 80.1396V83.2608H156.937ZM149.867 66.6652H151.099C151.173 67.2982 151.728 67.6147 152.766 67.6147C153.111 67.6281 153.456 67.5661 153.776 67.4329C153.914 67.35 154.033 67.2388 154.126 67.1064C154.218 66.9741 154.281 66.8237 154.311 66.6652H155.503C155.516 67.1339 155.378 67.5943 155.109 67.9783C154.852 68.3372 154.503 68.6199 154.099 68.7965C153.65 68.9808 153.17 69.0735 152.685 69.0692C150.927 69.0692 150.005 68.2611 149.917 66.645L149.867 66.6652ZM142.402 72.0085C142.109 72.0008 141.823 72.1056 141.604 72.3014C141.491 72.4057 141.403 72.5345 141.347 72.6781C141.291 72.8217 141.268 72.9761 141.281 73.1297V79.9275C141.272 80.0891 141.297 80.2508 141.355 80.4021C141.412 80.5535 141.501 80.6911 141.614 80.8063C141.825 81.0107 142.108 81.1233 142.402 81.1194C142.547 81.1198 142.69 81.0914 142.823 81.0359C142.957 80.9804 143.078 80.8989 143.18 80.7962C143.296 80.6827 143.387 80.5455 143.447 80.394C143.506 80.2424 143.532 80.0799 143.523 79.9174V73.1196C143.535 72.9652 143.511 72.8103 143.453 72.6667C143.395 72.523 143.305 72.3946 143.19 72.2913C142.985 72.1131 142.724 72.0129 142.453 72.0085H142.402ZM138.049 73.3317C138.036 72.6562 138.196 71.9886 138.513 71.3924C138.847 70.8043 139.355 70.3347 139.968 70.049C140.735 69.7016 141.571 69.5357 142.412 69.5641C143.255 69.5332 144.093 69.7029 144.857 70.0591C145.464 70.3492 145.966 70.8226 146.291 71.4126C146.605 72.0101 146.765 72.6768 146.756 73.3519V79.4124C146.796 79.9786 146.723 80.5473 146.541 81.085C146.359 81.6227 146.071 82.1186 145.695 82.5436C145.248 82.9343 144.727 83.2313 144.163 83.417C143.599 83.6027 143.004 83.6732 142.412 83.6244C139.51 83.6244 138.059 82.2238 138.059 79.4225L138.049 73.3317ZM130.907 77.6043V83.2608H127.675V69.8571H130.907V74.9074H133.008V69.8571H136.241V83.2608H133.008V77.6043H130.907ZM122.463 72.261H121.716C121.524 72.2499 121.333 72.2844 121.157 72.3616C120.982 72.4389 120.827 72.5567 120.706 72.7055C120.447 73.0549 120.319 73.4835 120.342 73.9176C120.323 74.3699 120.451 74.8163 120.706 75.1903C120.815 75.3555 120.966 75.4892 121.143 75.5778C121.32 75.6665 121.518 75.707 121.716 75.6953H122.504L122.463 72.261ZM125.695 83.2608H122.463V78.1094H121.827L119.918 83.2608H116.473L118.999 77.3417C118.411 77.0159 117.935 76.5193 117.635 75.9175C117.284 75.2445 117.107 74.4946 117.12 73.7358C117.111 73.0577 117.26 72.3869 117.554 71.7762C117.836 71.1941 118.278 70.7038 118.827 70.3621C119.414 70.008 120.091 69.8292 120.776 69.847H125.695V83.2608ZM111.948 80.574V72.5439H109.797V74.9175C109.811 76.0261 109.737 77.134 109.575 78.2306C109.45 79.0447 109.201 79.835 108.837 80.574H111.948ZM105.484 80.574C105.97 79.7932 106.286 78.9191 106.413 78.0084C106.593 76.578 106.67 75.1367 106.645 73.6954V69.8672H115.181V80.5841H115.867V86.0183H112.736V83.2709H108.09V86.0183H104.949V80.5841L105.484 80.574ZM99.4234 72.0085C99.1298 72.0008 98.8443 72.1056 98.6254 72.3014C98.5119 72.4057 98.4238 72.5345 98.3678 72.6781C98.3118 72.8217 98.2893 72.9761 98.3022 73.1297V79.9275C98.2935 80.0891 98.3186 80.2508 98.376 80.4021C98.4334 80.5535 98.5218 80.6911 98.6355 80.8063C98.8465 81.0107 99.1297 81.1233 99.4234 81.1194C99.568 81.1198 99.7112 81.0914 99.8447 81.0359C99.9783 80.9804 100.099 80.8989 100.201 80.7962C100.318 80.6827 100.409 80.5455 100.468 80.394C100.527 80.2424 100.553 80.0799 100.545 79.9174V73.1196C100.556 72.9652 100.532 72.8103 100.474 72.6667C100.417 72.523 100.327 72.3946 100.211 72.2913C100.012 72.1175 99.7585 72.0176 99.4941 72.0085H99.4234ZM95.0699 73.3317C95.0568 72.6562 95.2168 71.9886 95.5346 71.3924C95.868 70.8043 96.3764 70.3347 96.9891 70.049C97.7558 69.7016 98.5923 69.5357 99.4335 69.5641C100.276 69.5332 101.114 69.7029 101.878 70.0591C102.486 70.3492 102.987 70.8226 103.312 71.4126C103.627 72.0101 103.786 72.6768 103.777 73.3519V79.4124C103.817 79.9786 103.745 80.5473 103.562 81.085C103.38 81.6227 103.093 82.1186 102.716 82.5436C102.269 82.9343 101.748 83.2313 101.184 83.417C100.621 83.6027 100.025 83.6732 99.4335 83.6244C96.5312 83.6244 95.0801 82.2238 95.0801 79.4225L95.0699 73.3317ZM89.7166 83.2608H85.2217V69.8571H90.3731C90.9249 69.854 91.4702 69.9748 91.969 70.2106C92.4799 70.452 92.9085 70.8384 93.2013 71.3217C93.5367 71.8967 93.7013 72.5554 93.676 73.2206C93.7138 73.922 93.5067 74.6146 93.0902 75.1802C92.7868 75.609 92.3443 75.9196 91.8378 76.0589C92.4366 76.2862 92.9512 76.6916 93.3124 77.2205C93.6691 77.8574 93.8372 78.5825 93.7972 79.3114C93.835 79.8425 93.7651 80.3758 93.5915 80.8792C93.4179 81.3826 93.1443 81.8457 92.7872 82.2406C91.9614 82.9639 90.8828 83.3307 89.7873 83.2608H89.7166ZM88.3328 77.4528V80.8568H89.06C89.2801 80.8829 89.5032 80.8632 89.7153 80.7988C89.9273 80.7345 90.1238 80.627 90.2923 80.4831C90.5537 80.1017 90.6717 79.6401 90.6256 79.1801C90.6643 78.7238 90.5467 78.2679 90.2923 77.8872C90.1435 77.7331 89.9616 77.6148 89.7603 77.5413C89.5591 77.4679 89.3438 77.441 89.1307 77.4629L88.3328 77.4528ZM88.3328 72.261V75.0489H89.2822C89.4673 75.0723 89.6554 75.0516 89.8309 74.9884C90.0065 74.9251 90.1646 74.8213 90.2923 74.6852C90.5177 74.3382 90.6207 73.9258 90.5852 73.5135C90.609 73.3426 90.5927 73.1685 90.5375 73.0049C90.4823 72.8414 90.3898 72.693 90.2673 72.5714C90.1447 72.4499 89.9956 72.3586 89.8316 72.3047C89.6676 72.2508 89.4934 72.2359 89.3226 72.261H88.3328ZM75.7472 79.776V77.7559H83.8278V79.776H75.7472ZM70.2221 71.9782C69.9285 71.9705 69.6431 72.0753 69.4242 72.2711C69.3107 72.3754 69.2225 72.5042 69.1665 72.6478C69.1104 72.7914 69.088 72.9458 69.1009 73.0994V79.8972C69.0922 80.0588 69.1173 80.2205 69.1747 80.3718C69.2321 80.5232 69.3205 80.6608 69.4342 80.776C69.6451 80.9804 69.9284 81.093 70.2221 81.0891C70.3667 81.0895 70.5099 81.0611 70.6434 81.0056C70.7769 80.9501 70.8981 80.8686 70.9999 80.7659C71.1164 80.6524 71.2074 80.5152 71.2666 80.3636C71.3259 80.2121 71.352 80.0496 71.3433 79.8871V73.0893C71.3549 72.9349 71.3309 72.78 71.2731 72.6363C71.2153 72.4927 71.1252 72.3643 71.0099 72.261C70.785 72.0798 70.5002 71.9896 70.212 72.0085L70.2221 71.9782ZM65.8687 73.3014C65.8555 72.6259 66.0155 71.9583 66.3333 71.3621C66.6668 70.774 67.1751 70.3044 67.7878 70.0187C68.5545 69.6713 69.391 69.5054 70.2322 69.5338C71.0747 69.5029 71.9125 69.6726 72.6766 70.0288C73.2844 70.3189 73.786 70.7923 74.1109 71.3823C74.4254 71.9798 74.5851 72.6465 74.5755 73.3216V79.3821C74.6162 79.9483 74.5433 80.517 74.3612 81.0547C74.179 81.5924 73.8913 82.0883 73.515 82.5133C73.068 82.904 72.5471 83.201 71.9832 83.3867C71.4193 83.5724 70.8239 83.6429 70.2322 83.5941C67.3299 83.5941 65.8788 82.1935 65.8788 79.3922L65.8687 73.3014ZM59.2426 75.6044H59.8183C60.8351 75.6044 61.3435 75.032 61.3435 73.8873C61.3698 73.6555 61.3475 73.4208 61.2779 73.1982C61.2083 72.9756 61.0931 72.7699 60.9395 72.5944C60.6029 72.3342 60.1818 72.2082 59.7577 72.2408H59.2325L59.2426 75.6044ZM56.0103 83.2406V69.8571H60.6971C61.3586 69.8469 62.0162 69.96 62.6364 70.1904C63.2373 70.4377 63.7386 70.8785 64.0607 71.4429C64.4703 72.2118 64.6624 73.0779 64.6162 73.9479C64.6585 74.8046 64.4665 75.6567 64.0607 76.4125C63.7396 76.9824 63.2388 77.43 62.6364 77.6852C62.0195 77.9292 61.3605 78.0494 60.6971 78.0387H59.2426V83.2709L56.0103 83.2406ZM49.4044 83.2406V72.5439H46.8691V69.8571H54.6871V72.5439H52.364V83.2608L49.4044 83.2406ZM37.435 83.2406V69.8571H40.4652V75.2004L42.7177 69.8571H46.2227L43.3136 75.7357L46.2833 83.2204H42.8894L41.3945 78.5538L40.5157 80.0992V83.2204L37.435 83.2406ZM28.3443 83.2406V69.8571H35.8492V72.3924H31.5766V74.9883H35.4957V77.5235H31.5362V80.7255H35.8088V83.2608L28.3443 83.2406ZM17.8497 69.8369H26.3242V83.2406H23.0919V72.5439H20.9809V76.9882C21.0144 78.299 20.906 79.6097 20.6576 80.8972C20.5391 81.6416 20.1851 82.3283 19.6476 82.8567C19.1288 83.2485 18.4888 83.4452 17.8396 83.4123C17.2396 83.4013 16.6482 83.2672 16.1022 83.0184V80.6043C16.3534 80.699 16.6225 80.737 16.8901 80.7154C17.0822 80.7278 17.2723 80.6704 17.4254 80.5538C17.5781 80.3778 17.6733 80.1592 17.6981 79.9275C17.7689 79.4832 17.8061 79.0341 17.8092 78.5841C17.8092 77.9983 17.8092 77.1498 17.8092 76.0286L17.8497 69.8369ZM11.7892 79.7154C11.7892 80.6514 11.4256 81.1194 10.6983 81.1194C9.97105 81.1194 9.56363 80.6716 9.47609 79.776V78.3922H6.20346V79.2508C6.10101 79.848 6.14332 80.4611 6.32688 81.0386C6.51044 81.616 6.82988 82.141 7.25835 82.5695C7.68682 82.998 8.21184 83.3174 8.78931 83.501C9.36679 83.6845 9.97988 83.7268 10.5771 83.6244C11.4218 83.6531 12.2628 83.498 13.0417 83.1699C13.6763 82.8771 14.1901 82.3739 14.4962 81.7457C14.8402 80.9603 15.0024 80.1075 14.9709 79.2508V73.3721C14.9823 72.6956 14.8188 72.0276 14.4962 71.4328C14.1622 70.8451 13.654 70.3757 13.0417 70.0894C12.2684 69.7403 11.425 69.5744 10.5771 69.6045C9.39116 69.5189 8.21913 69.9036 7.31452 70.6752C6.94991 71.0292 6.66361 71.4557 6.47398 71.9272C6.28434 72.3987 6.19562 72.9047 6.21357 73.4125V74.2307H9.44582V73.1095C9.44137 72.9609 9.47302 72.8134 9.53811 72.6797C9.60321 72.5459 9.6998 72.43 9.81955 72.3418C10.0511 72.1636 10.3354 72.0676 10.6276 72.0691C10.9068 72.0639 11.1776 72.165 11.3852 72.352C11.4918 72.4507 11.5759 72.5713 11.6317 72.7055C11.6875 72.8398 11.7136 72.9844 11.7084 73.1297V75.0287H10.0417V77.5639H11.7488L11.7892 79.7154Z" fill="#8963A7"/>
  </g>
  <g filter="url(#filter8_d_219_1482)">
    <path d="M200.037 6.28283H201.361C201.583 6.28889 201.805 6.25817 202.017 6.19192C202.167 6.14159 202.295 6.04186 202.381 5.90909C202.46 5.78548 202.502 5.64175 202.502 5.49495C202.505 5.39176 202.484 5.28929 202.442 5.19496C202.4 5.10063 202.338 5.01679 202.26 4.9495C202.041 4.78961 201.772 4.71426 201.502 4.73738H200.037V6.28283ZM199.421 8.88889V4.22223H201.441C201.763 4.20676 202.084 4.24779 202.391 4.34344C202.609 4.42756 202.791 4.58462 202.906 4.78788C203.035 5.00081 203.102 5.2459 203.098 5.49495C203.102 5.64909 203.075 5.8025 203.02 5.94636C202.964 6.09023 202.881 6.22173 202.775 6.33334C202.499 6.591 202.142 6.74457 201.765 6.76768C201.899 6.82761 202.025 6.90578 202.138 7C202.336 7.18563 202.51 7.39613 202.654 7.62627L203.462 8.89899H202.694L202.078 7.88889C201.896 7.60607 201.744 7.39394 201.633 7.24243C201.546 7.12236 201.44 7.01671 201.32 6.9293C201.233 6.87362 201.138 6.83267 201.037 6.80808C200.923 6.79776 200.808 6.79776 200.694 6.80808H199.977V8.87879L199.421 8.88889ZM204.27 3.76768C203.529 3.02996 202.527 2.61573 201.482 2.61573C200.437 2.61573 199.434 3.02996 198.694 3.76768C198.327 4.13357 198.037 4.56814 197.838 5.04651C197.64 5.52489 197.538 6.03768 197.538 6.55556C197.538 7.07343 197.64 7.58623 197.838 8.0646C198.037 8.54298 198.327 8.97754 198.694 9.34344C199.444 10.0339 200.433 10.4073 201.452 10.3857C202.472 10.364 203.443 9.94891 204.163 9.22724C204.884 8.50558 205.297 7.53327 205.317 6.5138C205.337 5.49432 204.962 4.50669 204.27 3.75758V3.76768ZM201.472 2.00001C202.066 1.99888 202.655 2.1152 203.205 2.34227C203.754 2.56935 204.253 2.90272 204.674 3.32324C205.094 3.74374 205.428 4.24293 205.655 4.79234C205.883 5.34174 206 5.93059 206 6.52526C206 7.11993 205.883 7.70877 205.655 8.25817C205.428 8.80758 205.094 9.30678 204.674 9.72727C204.253 10.1478 203.754 10.4813 203.205 10.7089C202.655 10.9365 202.066 11.0536 201.472 11.0536C200.877 11.0536 200.288 10.9365 199.739 10.7089C199.189 10.4813 198.69 10.1478 198.27 9.72727C197.422 8.87714 196.946 7.72568 196.946 6.52526C196.946 5.32483 197.422 4.17338 198.27 3.32324C198.69 2.90272 199.189 2.56935 199.739 2.34227C200.288 2.1152 200.877 1.99888 201.472 2.00001Z" fill="#8963A7"/>
  </g>
  <defs>
    <filter id="filter0_d_219_1482" x="115.201" y="10.4543" width="47.585" height="57.0493" filterUnits="userSpaceOnUse" color-interpolation-filters="sRGB">
      <feFlood flood-opacity="0" result="BackgroundImageFix"/>
      <feColorMatrix in="SourceAlpha" type="matrix" values="0 0 0 0 0 0 0 0 0 0 0 0 0 0 0 0 0 0 127 0" result="hardAlpha"/>
      <feOffset dy="4"/>
      <feGaussianBlur stdDeviation="3"/>
      <feComposite in2="hardAlpha" operator="out"/>
      <feColorMatrix type="matrix" values="0 0 0 0 0 0 0 0 0 0 0 0 0 0 0 0 0 0 0.25 0"/>
      <feBlend mode="normal" in2="BackgroundImageFix" result="effect1_dropShadow_219_1482"/>
      <feBlend mode="normal" in="SourceGraphic" in2="effect1_dropShadow_219_1482" result="shape"/>
    </filter>
    <filter id="filter1_d_219_1482" x="102.938" y="2.65649" width="19.5757" height="19.5757" filterUnits="userSpaceOnUse" color-interpolation-filters="sRGB">
      <feFlood flood-opacity="0" result="BackgroundImageFix"/>
      <feColorMatrix in="SourceAlpha" type="matrix" values="0 0 0 0 0 0 0 0 0 0 0 0 0 0 0 0 0 0 127 0" result="hardAlpha"/>
      <feOffset dy="4"/>
      <feGaussianBlur stdDeviation="3"/>
      <feComposite in2="hardAlpha" operator="out"/>
      <feColorMatrix type="matrix" values="0 0 0 0 0 0 0 0 0 0 0 0 0 0 0 0 0 0 0.25 0"/>
      <feBlend mode="normal" in2="BackgroundImageFix" result="effect1_dropShadow_219_1482"/>
      <feBlend mode="normal" in="SourceGraphic" in2="effect1_dropShadow_219_1482" result="shape"/>
    </filter>
    <filter id="filter2_d_219_1482" x="102.928" y="10.9492" width="19.5967" height="56.312" filterUnits="userSpaceOnUse" color-interpolation-filters="sRGB">
      <feFlood flood-opacity="0" result="BackgroundImageFix"/>
      <feColorMatrix in="SourceAlpha" type="matrix" values="0 0 0 0 0 0 0 0 0 0 0 0 0 0 0 0 0 0 127 0" result="hardAlpha"/>
      <feOffset dy="4"/>
      <feGaussianBlur stdDeviation="3"/>
      <feComposite in2="hardAlpha" operator="out"/>
      <feColorMatrix type="matrix" values="0 0 0 0 0 0 0 0 0 0 0 0 0 0 0 0 0 0 0.25 0"/>
      <feBlend mode="normal" in2="BackgroundImageFix" result="effect1_dropShadow_219_1482"/>
      <feBlend mode="normal" in="SourceGraphic" in2="effect1_dropShadow_219_1482" result="shape"/>
    </filter>
    <filter id="filter3_d_219_1482" x="63.2422" y="10.5249" width="47.585" height="56.9089" filterUnits="userSpaceOnUse" color-interpolation-filters="sRGB">
      <feFlood flood-opacity="0" result="BackgroundImageFix"/>
      <feColorMatrix in="SourceAlpha" type="matrix" values="0 0 0 0 0 0 0 0 0 0 0 0 0 0 0 0 0 0 127 0" result="hardAlpha"/>
      <feOffset dy="4"/>
      <feGaussianBlur stdDeviation="3"/>
      <feComposite in2="hardAlpha" operator="out"/>
      <feColorMatrix type="matrix" values="0 0 0 0 0 0 0 0 0 0 0 0 0 0 0 0 0 0 0.25 0"/>
      <feBlend mode="normal" in2="BackgroundImageFix" result="effect1_dropShadow_219_1482"/>
      <feBlend mode="normal" in="SourceGraphic" in2="effect1_dropShadow_219_1482" result="shape"/>
    </filter>
    <filter id="filter4_d_219_1482" x="153.412" y="10.4441" width="47.4941" height="54.9485" filterUnits="userSpaceOnUse" color-interpolation-filters="sRGB">
      <feFlood flood-opacity="0" result="BackgroundImageFix"/>
      <feColorMatrix in="SourceAlpha" type="matrix" values="0 0 0 0 0 0 0 0 0 0 0 0 0 0 0 0 0 0 127 0" result="hardAlpha"/>
      <feOffset dy="4"/>
      <feGaussianBlur stdDeviation="3"/>
      <feComposite in2="hardAlpha" operator="out"/>
      <feColorMatrix type="matrix" values="0 0 0 0 0 0 0 0 0 0 0 0 0 0 0 0 0 0 0.25 0"/>
      <feBlend mode="normal" in2="BackgroundImageFix" result="effect1_dropShadow_219_1482"/>
      <feBlend mode="normal" in="SourceGraphic" in2="effect1_dropShadow_219_1482" result="shape"/>
    </filter>
    <filter id="filter5_d_219_1482" x="29.519" y="9.91626" width="35.7031" height="57.887" filterUnits="userSpaceOnUse" color-interpolation-filters="sRGB">
      <feFlood flood-opacity="0" result="BackgroundImageFix"/>
      <feColorMatrix in="SourceAlpha" type="matrix" values="0 0 0 0 0 0 0 0 0 0 0 0 0 0 0 0 0 0 127 0" result="hardAlpha"/>
      <feOffset dy="4"/>
      <feGaussianBlur stdDeviation="3"/>
      <feComposite in2="hardAlpha" operator="out"/>
      <feColorMatrix type="matrix" values="0 0 0 0 0 0 0 0 0 0 0 0 0 0 0 0 0 0 0.25 0"/>
      <feBlend mode="normal" in2="BackgroundImageFix" result="effect1_dropShadow_219_1482"/>
      <feBlend mode="normal" in="SourceGraphic" in2="effect1_dropShadow_219_1482" result="shape"/>
    </filter>
    <filter id="filter6_d_219_1482" x="0" y="9.89355" width="38.0371" height="57.9219" filterUnits="userSpaceOnUse" color-interpolation-filters="sRGB">
      <feFlood flood-opacity="0" result="BackgroundImageFix"/>
      <feColorMatrix in="SourceAlpha" type="matrix" values="0 0 0 0 0 0 0 0 0 0 0 0 0 0 0 0 0 0 127 0" result="hardAlpha"/>
      <feOffset dy="4"/>
      <feGaussianBlur stdDeviation="3"/>
      <feComposite in2="hardAlpha" operator="out"/>
      <feColorMatrix type="matrix" values="0 0 0 0 0 0 0 0 0 0 0 0 0 0 0 0 0 0 0.25 0"/>
      <feBlend mode="normal" in2="BackgroundImageFix" result="effect1_dropShadow_219_1482"/>
      <feBlend mode="normal" in="SourceGraphic" in2="effect1_dropShadow_219_1482" result="shape"/>
    </filter>
    <filter id="filter7_d_219_1482" x="0.148926" y="64.645" width="200.131" height="31.3733" filterUnits="userSpaceOnUse" color-interpolation-filters="sRGB">
      <feFlood flood-opacity="0" result="BackgroundImageFix"/>
      <feColorMatrix in="SourceAlpha" type="matrix" values="0 0 0 0 0 0 0 0 0 0 0 0 0 0 0 0 0 0 127 0" result="hardAlpha"/>
      <feOffset dy="4"/>
      <feGaussianBlur stdDeviation="3"/>
      <feComposite in2="hardAlpha" operator="out"/>
      <feColorMatrix type="matrix" values="0 0 0 0 0 0 0 0 0 0 0 0 0 0 0 0 0 0 0.25 0"/>
      <feBlend mode="normal" in2="BackgroundImageFix" result="effect1_dropShadow_219_1482"/>
      <feBlend mode="normal" in="SourceGraphic" in2="effect1_dropShadow_219_1482" result="shape"/>
    </filter>
    <filter id="filter8_d_219_1482" x="190.946" y="0" width="21.0537" height="21.0537" filterUnits="userSpaceOnUse" color-interpolation-filters="sRGB">
      <feFlood flood-opacity="0" result="BackgroundImageFix"/>
      <feColorMatrix in="SourceAlpha" type="matrix" values="0 0 0 0 0 0 0 0 0 0 0 0 0 0 0 0 0 0 127 0" result="hardAlpha"/>
      <feOffset dy="4"/>
      <feGaussianBlur stdDeviation="3"/>
      <feComposite in2="hardAlpha" operator="out"/>
      <feColorMatrix type="matrix" values="0 0 0 0 0 0 0 0 0 0 0 0 0 0 0 0 0 0 0.25 0"/>
      <feBlend mode="normal" in2="BackgroundImageFix" result="effect1_dropShadow_219_1482"/>
      <feBlend mode="normal" in="SourceGraphic" in2="effect1_dropShadow_219_1482" result="shape"/>
    </filter>
  </defs>
</svg>